<?xml version="1.0" encoding="UTF-8"?>
<!DOCTYPE svg PUBLIC "-//W3C//DTD SVG 1.1//EN" "http://www.w3.org/Graphics/SVG/1.1/DTD/svg11.dtd">
<!-- Creator: CorelDRAW 2020 (64-Bit) -->
<svg xmlns="http://www.w3.org/2000/svg" xml:space="preserve" width="2.4886mm" height="4.4026mm" version="1.1" style="shape-rendering:geometricPrecision; text-rendering:geometricPrecision; image-rendering:optimizeQuality; fill-rule:evenodd; clip-rule:evenodd"
viewBox="0 0 35.52 62.84"
 xmlns:xlink="http://www.w3.org/1999/xlink"
 xmlns:xodm="http://www.corel.com/coreldraw/odm/2003">
 <defs>
  <style type="text/css">
   <![CDATA[
    .fil0 {fill:#E882E8;fill-rule:nonzero}
   ]]>
  </style>
 </defs>
 <g id="Capa_x0020_1">
  <metadata id="CorelCorpID_0Corel-Layer"/>
  <path class="fil0" d="M27.32 12.29l6.83 0c0.75,0 1.37,-0.61 1.37,-1.37l0 -9.2c0,-0.72 -0.55,-1.31 -1.26,-1.36 -2.17,-0.15 -6.42,-0.36 -9.47,-0.36 -8.39,0 -13.85,5.03 -13.85,14.16l0 9.06 -9.56 0c-0.75,0 -1.37,0.61 -1.37,1.37l0 9.56c0,0.76 0.61,1.37 1.37,1.37l9.56 0 0 25.95c0,0.75 0.61,1.37 1.37,1.37l9.56 0c0.76,0 1.37,-0.61 1.37,-1.37l0 -25.95 9.87 0c0.7,0 1.28,-0.52 1.36,-1.22l1.06 -9.56c0.09,-0.81 -0.54,-1.52 -1.36,-1.52l-10.93 0 0 -6.83c0,-2.26 1.84,-4.1 4.1,-4.1z"/>
 </g>
</svg>
