<?xml version="1.0" encoding="UTF-8"?>
<!DOCTYPE svg PUBLIC "-//W3C//DTD SVG 1.1//EN" "http://www.w3.org/Graphics/SVG/1.1/DTD/svg11.dtd">
<!-- Creator: CorelDRAW 2020 (64-Bit) -->
<svg xmlns="http://www.w3.org/2000/svg" xml:space="preserve" width="4.4026mm" height="4.4026mm" version="1.1" style="shape-rendering:geometricPrecision; text-rendering:geometricPrecision; image-rendering:optimizeQuality; fill-rule:evenodd; clip-rule:evenodd"
viewBox="0 0 597.21 597.21"
 xmlns:xlink="http://www.w3.org/1999/xlink"
 xmlns:xodm="http://www.corel.com/coreldraw/odm/2003">
 <defs>
  <style type="text/css">
   <![CDATA[
    .fil0 {fill:#E882E8;fill-rule:nonzero}
   ]]>
  </style>
 </defs>
 <g id="Capa_x0020_1">
  <metadata id="CorelCorpID_0Corel-Layer"/>
  <path class="fil0" d="M173.34 0c-95.47,0 -173.34,77.88 -173.34,173.34l0 250.52c0,95.47 77.88,173.34 173.34,173.34l250.52 0c95.47,0 173.34,-77.88 173.34,-173.34l0 -250.52c0,-95.47 -77.88,-173.34 -173.34,-173.34l-250.52 0zm0 45.94l250.52 0c70.6,0 127.4,56.7 127.4,127.4l0 250.52c0,70.6 -56.7,127.4 -127.4,127.4l-250.52 0c-70.6,0 -127.4,-56.7 -127.4,-127.4l0 -250.52c0,-70.6 56.7,-127.4 127.4,-127.4zm297.53 45.93c-19.02,0 -34.45,15.44 -34.45,34.45 0,19.02 15.44,34.45 34.45,34.45 19.02,0 34.45,-15.44 34.45,-34.45 0,-19.02 -15.44,-34.45 -34.45,-34.45zm-172.27 45.94c-88.56,0 -160.78,72.22 -160.78,160.78 0,88.56 72.22,160.78 160.78,160.78 88.56,0 160.78,-72.22 160.78,-160.78 0,-88.56 -72.22,-160.78 -160.78,-160.78zm0 45.93c63.7,0 114.85,51.15 114.85,114.85 0,63.7 -51.15,114.85 -114.85,114.85 -63.7,0 -114.85,-51.15 -114.85,-114.85 0,-63.7 51.15,-114.85 114.85,-114.85z"/>
 </g>
</svg>
