<?xml version="1.0" encoding="UTF-8"?>
<!DOCTYPE svg PUBLIC "-//W3C//DTD SVG 1.1//EN" "http://www.w3.org/Graphics/SVG/1.1/DTD/svg11.dtd">
<!-- Creator: CorelDRAW 2020 (64-Bit) -->
<svg xmlns="http://www.w3.org/2000/svg" xml:space="preserve" width="4.4026mm" height="3.5776mm" version="1.1" style="shape-rendering:geometricPrecision; text-rendering:geometricPrecision; image-rendering:optimizeQuality; fill-rule:evenodd; clip-rule:evenodd"
viewBox="0 0 56.24 45.7"
 xmlns:xlink="http://www.w3.org/1999/xlink"
 xmlns:xodm="http://www.corel.com/coreldraw/odm/2003">
 <defs>
  <style type="text/css">
   <![CDATA[
    .fil0 {fill:#E882E8;fill-rule:nonzero}
   ]]>
  </style>
 </defs>
 <g id="Capa_x0020_1">
  <metadata id="CorelCorpID_0Corel-Layer"/>
  <path class="fil0" d="M56.24 5.41c-2.07,0.92 -4.29,1.54 -6.63,1.82 2.38,-1.43 4.22,-3.69 5.07,-6.38 -2.23,1.32 -4.7,2.28 -7.33,2.8 -2.1,-2.24 -5.1,-3.64 -8.42,-3.64 -6.37,0 -11.54,5.16 -11.54,11.53 0,0.9 0.1,1.78 0.3,2.63 -9.59,-0.48 -18.09,-5.07 -23.78,-12.06 -1,1.71 -1.56,3.69 -1.56,5.8 0,4 2.03,7.53 5.13,9.61 -1.89,-0.06 -3.67,-0.58 -5.23,-1.45 0,0.05 0,0.1 0,0.14 0,5.59 3.98,10.25 9.25,11.32 -0.96,0.26 -1.99,0.4 -3.04,0.4 -0.74,0 -1.47,-0.07 -2.17,-0.21 1.47,4.58 5.73,7.92 10.78,8.02 -3.94,3.09 -8.92,4.93 -14.33,4.93 -0.93,0 -1.85,-0.05 -2.75,-0.16 5.1,3.28 11.17,5.18 17.68,5.18 21.22,0 32.83,-17.58 32.83,-32.82 0,-0.5 -0.01,-1 -0.03,-1.49 2.25,-1.63 4.21,-3.66 5.75,-5.97z"/>
 </g>
</svg>
